<svg id="图层_1" data-name="图层 1" xmlns="http://www.w3.org/2000/svg" viewBox="0 0 42 42"><defs><style>.cls-1{fill:aqua;}</style></defs><title>icon</title><g id="形状备份-2"><path id="path-16" d="M25.07,4,4,16.49v3.25H46V16.41ZM4,40.32H46V46H4Zm13.74-1.09V20.93H6.48v18.3ZM13.59,23.89h1.68V36.27H13.59V23.89ZM10.75,36.27H9.08V23.89h1.67Zm32.29,3V20.93H31.77v18.3ZM38.88,23.89h1.68V36.27H38.89V23.89Zm-3,12.38H34.25V23.89h1.67ZM21.55,39.85l8.66-13.34H25l0-6.2-5.44,10H23.8l-2.27,9.52Z" transform="translate(-4 -4)"/><path id="path-16-2" data-name="path-16" class="cls-1" d="M25.07,4,4,16.49v3.25H46V16.41ZM4,40.32H46V46H4Zm13.74-1.09V20.93H6.48v18.3ZM13.59,23.89h1.68V36.27H13.59V23.89ZM10.75,36.27H9.08V23.89h1.67Zm32.29,3V20.93H31.77v18.3ZM38.88,23.89h1.68V36.27H38.89V23.89Zm-3,12.38H34.25V23.89h1.67ZM21.55,39.85l8.66-13.34H25l0-6.2-5.44,10H23.8l-2.27,9.52Z" transform="translate(-4 -4)"/></g></svg>