<?xml version="1.0" encoding="UTF-8"?>
<svg width="100px" height="100px" viewBox="0 0 100 100" version="1.1" xmlns="http://www.w3.org/2000/svg" xmlns:xlink="http://www.w3.org/1999/xlink">
    <!-- Generator: Sketch 55.2 (78181) - https://sketchapp.com -->
    <title>开闭站</title>
    <desc>Created with Sketch.</desc>
    <g id="开闭站" stroke="none" stroke-width="1" fill="none" fill-rule="evenodd">
        <g id="编组-2备份-2" transform="translate(9.000000, 1.000000)" fill="#30E57D" fill-rule="nonzero">
            <polygon id="路径" points="47.3313609 25 28 39.0489362 37.3727811 43.2702128 29.887574 56 50 42.3468085 39.8461538 37.7297872"></polygon>
            <path d="M76.8908905,27 L63.7140097,27 C62.2221447,27 61.0127491,28.212973 61.0127491,29.7092511 L61.0127491,54.092511 C60.8808093,55.4570917 61.7860314,56.7054541 63.12105,57 L76.2979308,57 C77.7897958,57 78.9991914,55.787027 78.9991914,54.2907489 L78.9991914,29.7092511 C79.0305291,28.4174611 78.1479139,27.2832653 76.8908905,27 L76.8908905,27 Z M75.5732024,50.061674 L64.7681601,50.061674 L64.7681601,47.3524229 L75.5732024,47.3524229 L75.5732024,50.061674 Z M75.5732024,43.4537445 L64.7681601,43.4537445 L64.7681601,40.7444934 L75.5732024,40.7444934 L75.5732024,43.4537445 Z M75.5732024,36.845815 L64.7681601,36.845815 L64.7681601,34.1365639 L75.5732024,34.1365639 L75.5732024,36.845815 Z" id="形状"></path>
            <path d="M16.2473498,27.0008123 L2.81978818,27.0008123 C2.07817797,26.9828866 1.3606581,27.2622748 0.829823044,27.7756657 C0.298987991,28.2890567 -0.000220441444,28.9929854 1.21855759e-07,29.7279374 L1.21855759e-07,54.2720626 C-0.000220441444,55.0070146 0.298987991,55.7109433 0.829823044,56.2243343 C1.3606581,56.7377252 2.07817797,57.0171134 2.81978818,56.9991877 L16.2473498,56.9991877 C17.7675964,56.9991877 19.0000001,55.7782122 19.0000001,54.2720626 L19.0000001,29.7279374 C19.0000001,28.2217878 17.7675964,27.0008123 16.2473498,27.0008123 L16.2473498,27.0008123 Z M7.38515911,51.5449376 L4.63250898,51.5449376 L4.63250898,32.4550624 L7.38515911,32.4550624 L7.38515911,51.5449376 Z M14.0989399,51.5449376 L11.3462898,51.5449376 L11.3462898,32.4550624 L14.0989399,32.4550624 L14.0989399,51.5449376 Z" id="形状"></path>
            <path d="M29.1347964,16.9737298 C28.1226329,16.9851254 27.1699848,16.4947644 26.5885563,15.6630916 C26.1035432,14.9853266 25.9067221,14.1418929 26.0414141,13.3184338 C26.1761061,12.4949747 26.6312715,11.7589832 27.3067266,11.2724539 L42.0618615,0.590753144 C42.7371061,0.103929684 43.5774033,-0.0936260852 44.3978001,0.0415686908 C45.2181969,0.176763467 45.9514515,0.633627867 46.4361715,1.31160412 C47.4094849,2.73144164 47.0925112,4.66930669 45.7180012,5.70224185 L30.9628662,16.6460702 C30.4018505,16.9421806 29.7632432,17.0566432 29.1347964,16.9737298 L29.1347964,16.9737298 Z" id="路径"></path>
            <path d="M28.1378033,72 C26.7753703,72.0005084 25.5684339,71.1188674 25.1510344,69.8182296 C24.7336348,68.5175918 25.2012497,67.0954699 26.3082266,66.2989476 L41.0101819,55.617666 C41.6798515,55.1130228 42.5260067,54.9046054 43.352597,55.0407033 C44.1791873,55.1768012 44.914475,55.6456027 45.3880974,56.3384887 C46.4128477,57.7327705 46.1207365,59.695526 44.7346772,60.7289541 L29.7713539,71.4102358 C29.2913924,71.7539551 28.7260903,71.9580473 28.1378033,72 Z" id="路径"></path>
            <path d="M25.4233707,97.5325778 C24.0475405,97.5320806 22.8280708,96.6309154 22.405586,95.3024916 C21.9831011,93.9740677 22.4542419,92.5222538 23.5715038,91.7097317 L53.9983538,69.4881693 C54.6742282,68.9733657 55.5285469,68.761177 56.3633682,68.9007666 C57.1981895,69.0403561 57.9410612,69.5196091 58.4198635,70.2274849 C59.4557421,71.6519842 59.1622385,73.6559829 57.7633285,74.710207 L27.0725403,96.9315744 C26.5881182,97.2821964 26.0174111,97.490178 25.4233707,97.5325778 Z" id="路径备份" transform="translate(40.645764, 83.195705) rotate(36.000000) translate(-40.645764, -83.195705) "></path>
            <path d="M34.0941024,103.56658 C32.7182723,103.566082 31.4988025,102.664917 31.0763177,101.336493 C30.6538328,100.008069 31.1249736,98.556255 32.2422355,97.7437328 L47.0807093,86.8477875 C47.7565837,86.3329838 48.6109024,86.1207951 49.4457237,86.2603847 C50.2805449,86.3999742 51.0234167,86.8792273 51.502219,87.5871032 C52.5380976,89.0116026 52.2445939,91.0156016 50.845684,92.0698258 L35.743272,102.965576 C35.25885,103.316198 34.6881428,103.52418 34.0941024,103.56658 Z" id="路径备份-2" transform="translate(41.522308, 94.892515) rotate(36.000000) translate(-41.522308, -94.892515) "></path>
            <path d="M10.1914894,32.999229 C8.45452103,32.9996002 7.0361868,31.632025 7,29.9219559 L7,18.2021285 C7,14.2245028 10.2745131,11 14.3138298,11 L28.8085106,11 C30.5562828,11.0347799 31.9646807,12.4216679 32,14.142747 C32,15.8784382 30.5711215,17.285494 28.8085106,17.285494 L14.3138298,17.285494 C13.7997349,17.285494 13.3829787,17.6958853 13.3829787,18.2021285 L13.3829787,30.0529037 C13.3109989,31.7267741 11.8924257,33.0363752 10.1914894,32.999229 L10.1914894,32.999229 Z" id="路径"></path>
            <path d="M27.6346154,72 L13.2115385,72 C9.19359385,72 6,68.5084081 6,64.524857 L6,55.1481425 C6,53.4098657 7.42131825,52.0007139 9.17460317,52.0007139 C10.0220176,51.9826396 10.8401258,52.3084354 11.4394769,52.9026561 C12.038828,53.4968767 12.3674367,54.307982 12.3492063,55.1481425 L12.3492063,64.524857 C12.3492063,65.0318544 12.7637575,65.442857 13.2751323,65.442857 L27.6931217,65.442857 C29.5194602,65.442857 31,66.9107235 31,68.7214285 C31,70.5321335 29.5194602,72 27.6931217,72 L27.6346154,72 Z" id="路径"></path>
            <path d="M65.6387387,72 L50.3765831,72 C48.5117477,72 47,70.5333466 47,68.7241379 C47,66.9149293 48.5117477,65.4482759 50.3765831,65.4482759 L65.6387387,65.4482759 C65.8837624,65.4489803 66.1179406,65.3503088 66.2846681,65.1761121 C66.4513955,65.0019154 66.5354994,64.768046 66.5166503,64.5310345 L66.5166503,56.1448276 C66.5525232,54.4226091 67.9829995,53.0348029 69.75817,53 C70.6178745,53 71.4423678,53.3313291 72.0502706,53.9210987 C72.6581735,54.5108683 72.9996898,55.3107675 72.9996898,56.1448276 L72.9996898,64.7931034 C73.0177082,66.6984412 72.2501433,68.5317559 70.8677394,69.885228 C69.4853355,71.2387 67.6027414,72 65.6387387,72 Z" id="路径"></path>
            <path d="M68.8666675,32.999229 C67.1615143,32.9996002 65.7691589,31.632025 65.7336349,29.9219559 L65.7336349,18.2021285 C65.7518532,17.9652738 65.6705641,17.7315592 65.5094167,17.5574777 C65.3482693,17.3833963 65.1219286,17.28479 64.8851052,17.285494 L50.1337433,17.285494 C49.2974255,17.3035414 48.4900302,16.9782302 47.8985274,16.3848934 C47.3070246,15.7915566 46.982719,14.9816578 47.0007106,14.142747 C47.0007106,12.4070558 48.4034171,11 50.1337433,11 L64.8851052,11 C66.7833768,11 68.6029643,11.7607963 69.9391019,13.1133729 C71.2752395,14.4659496 72.0171155,16.2980513 71.9997002,18.2021285 L71.9997002,30.0529037 C71.9290388,31.7267741 70.5364488,33.0363752 68.8666675,32.999229 L68.8666675,32.999229 Z" id="路径"></path>
        </g>
    </g>
</svg>